<svg version="1.1" xmlns="http://www.w3.org/2000/svg" xmlns:xlink="http://www.w3.org/1999/xlink" width="182.90344" height="20" viewBox="0,0,182.90344,20"><g transform="translate(-148.54828,-170)"><g data-paper-data="{&quot;isPaintingLayer&quot;:true}" fill-rule="nonzero" stroke="none" stroke-width="1" stroke-linecap="butt" stroke-linejoin="miter" stroke-miterlimit="10" stroke-dasharray="" stroke-dashoffset="0" style="mix-blend-mode: normal"><g><g><path d="M177.11838,180c0,0 0,4.6496 -0.5974,6.8768c-0.3292,1.23 -1.2959,2.1966 -2.5259,2.5258c-2.2271,0.5974 -11.1618,0.5974 -11.1618,0.5974c0,0 -8.93458,0 -11.16177,-0.5974c-1.23,-0.3292 -2.19661,-1.2958 -2.52587,-2.5258c-0.59736,-2.2272 -0.59736,-6.8768 -0.59736,-6.8768c0,0 0,-4.64958 0.59736,-6.87676c0.32925,-1.23001 1.29587,-2.19662 2.52587,-2.52588c2.22719,-0.59736 11.16177,-0.59736 11.16177,-0.59736c0,0 8.9347,0 11.1618,0.59736c1.23,0.32925 2.1967,1.29587 2.5259,2.52588c0.595,2.22718 0.5974,6.87676 0.5974,6.87676z" fill="#ff0000"/><path d="M159.97358,175.71533l7.4224,4.28507l-7.4224,4.285z" fill="#ffffff"/></g><g fill="#fff"><path d="M179.27772,171.36245h1.41976l0.99383,3.19445c0.54424,1.7747 1.06481,3.12346 1.15946,3.02881c0.07099,-0.11831 0.33128,-0.78086 0.52058,-1.49074c0.21296,-0.70988 0.61523,-2.0823 0.89918,-3.02881l0.52058,-1.70371h1.3961c0.97017,0 1.39609,0.09465 1.39609,0.30761c0,0.16564 -0.7572,2.36626 -1.65638,4.89815l-1.65638,4.6142v3.59672v3.62037h-1.53807h-1.53806v-3.62037v-3.64404l-1.65638,-4.6142c-0.89918,-2.55556 -1.65638,-4.75618 -1.65638,-4.89815c0,-0.16564 0.52057,-0.26029 1.39609,-0.26029z"/><path d="M209.35285,171.36245h4.25926h4.25926v1.30144v1.27778l-1.34876,0.07099l-1.37243,0.07099l-0.07099,7.1461l-0.04733,7.16976h-1.41976h-1.41975v-7.21708v-7.21708h-1.41975h-1.41976v-1.30144z"/><path d="M230.17592,171.36245h1.30144h1.30144v2.60288c0,1.41976 0.04733,2.60289 0.11831,2.60289c0.07099,0 0.47325,-0.23663 0.85185,-0.54424c0.94651,-0.68622 2.55556,-0.70988 3.2891,-0.04733c1.01749,0.89918 1.18312,1.75103 1.18312,5.96297c0,2.17695 -0.11831,4.37757 -0.23662,4.85083c-0.35494,1.23046 -1.20679,1.84569 -2.62655,1.84569c-0.94651,0 -1.30144,-0.11831 -1.98766,-0.73354l-0.82819,-0.73354v0.61523c0,0.59157 -0.07099,0.61522 -1.18313,0.61522h-1.18312v-8.51852zM233.44135,177.89332l-0.66255,0.35494v3.88066c0,3.6677 0.02366,3.90433 0.47325,4.14095c0.78087,0.42593 1.72737,0.1893 2.05864,-0.47325c0.1893,-0.3786 0.30761,-1.65638 0.30761,-3.59671c0,-2.91049 -0.21296,-4.14095 -0.78086,-4.49589c-0.40226,-0.26029 -0.66255,-0.21297 -1.39609,0.1893z"/><path d="M263.42182,171.81204c1.77469,0.70988 2.55556,2.17696 2.53189,4.8035c-0.02366,3.19445 -1.37243,4.6142 -4.66152,4.85083l-1.77469,0.14198v3.38374v3.40741h-1.53807h-1.53807v-8.35288c0,-4.6142 0.07099,-8.44754 0.1893,-8.54219c0.26028,-0.28395 5.96296,0 6.79115,0.30761zM260.18005,173.72871h-0.66255v2.74486v2.74486l1.3251,-0.09465c1.65638,-0.14198 2.03499,-0.52057 2.17696,-2.17695c0.14198,-1.79835 -0.23663,-2.67388 -1.34877,-2.98149c-0.47325,-0.11831 -1.13581,-0.23662 -1.49075,-0.23662z"/><path d="M303.88482,171.40978l1.18313,0.07099l0.07099,1.11214l0.07099,1.13581h-1.41975h-1.44342v-1.01749c0,-0.5679 0.07099,-1.11214 0.16564,-1.20679c0.09465,-0.09465 0.70988,-0.14198 1.37243,-0.09465z"/><path d="M193.14399,175.38509c0.87552,0 2.36625,0.52058 2.93415,1.01749c1.01749,0.94651 1.20679,1.77469 1.20679,5.67901c0,3.2891 -0.04733,3.71502 -0.52058,4.66153c-0.68622,1.32511 -1.72736,1.89301 -3.50206,1.89301c-1.7747,0 -2.81585,-0.5679 -3.4784,-1.89301c-0.49692,-0.94651 -0.54423,-1.37243 -0.54423,-4.66153c0,-4.70885 0.35494,-5.58436 2.53189,-6.36523c0.49692,-0.16564 1.11214,-0.30762 1.37243,-0.33128zM192.78905,177.68036c-0.82819,0.28395 -0.9465,0.82819 -0.9465,4.33025c0,3.857 0.1893,4.49589 1.39609,4.49589c1.27778,0 1.44342,-0.49691 1.44342,-4.40124c0,-2.48457 -0.09465,-3.6677 -0.28395,-3.92799c-0.35494,-0.44959 -1.11214,-0.66255 -1.60905,-0.49692z"/><path d="M245.91152,175.64538c1.98766,0.54424 2.72119,1.82202 2.72119,4.82717v2.01131h-2.72119h-2.72119v1.49075c0,1.72737 0.42593,2.53189 1.34877,2.53189c0.89918,0 1.49074,-0.63888 1.49074,-1.58539v-0.78087h1.32511h1.34877l-0.11832,1.15946c-0.21296,2.17695 -1.60905,3.33643 -4.02263,3.33643c-1.72737,0 -2.79218,-0.5679 -3.43107,-1.89301c-0.49692,-0.94651 -0.54424,-1.37243 -0.54424,-4.66153c0,-4.70885 0.35494,-5.58436 2.53189,-6.36523c1.11214,-0.3786 1.58539,-0.40226 2.79218,-0.07099zM243.19033,179.45505v0.89918h1.41975h1.41975v-0.9465c0,-0.63889 -0.16563,-1.11214 -0.47325,-1.41976c-1.01749,-1.01749 -2.36626,-0.1893 -2.36626,1.46708z"/><path d="M274.3776,176.82851l0.07098,1.34876l-1.27778,-0.04733c-0.97016,-0.02366 -1.41976,0.09465 -1.79836,0.42593c-0.47325,0.42593 -0.49691,0.66255 -0.49691,5.15844v4.68519h-1.30144h-1.30144v-6.38889v-6.38889h1.18313c1.15946,0 1.18313,0.02366 1.18313,0.70988c0,0.7572 0.33128,0.9465 0.5679,0.35493c0.07098,-0.21296 0.59156,-0.59156 1.13581,-0.82818c1.63272,-0.7572 1.94033,-0.59157 2.03498,0.97017z"/><path d="M281.40538,175.64538c1.98766,0.54424 2.72119,1.82202 2.72119,4.82717v2.01131h-2.72119h-2.7212v1.49075c0,1.72737 0.42593,2.53189 1.34877,2.53189c0.89918,0 1.49074,-0.63888 1.49074,-1.58539v-0.78087h1.32511h1.34876l-0.11831,1.15946c-0.21296,2.17695 -1.60905,3.33643 -4.02264,3.33643c-1.72737,0 -2.79219,-0.5679 -3.43107,-1.89301c-0.49692,-0.94651 -0.54424,-1.37243 -0.54424,-4.66153c0,-4.70885 0.35494,-5.58436 2.5319,-6.36523c1.11214,-0.3786 1.58539,-0.40226 2.79219,-0.07099zM278.68418,179.45505v0.89918h1.41976h1.41975v-0.9465c0,-0.63889 -0.16563,-1.11214 -0.47325,-1.41976c-1.01749,-1.01749 -2.36626,-0.1893 -2.36626,1.46708z"/><path d="M294.04119,176.37892l0.42592,0.49692l0.87552,-0.66255c1.13581,-0.87552 2.95782,-0.97017 3.71502,-0.1893c0.7572,0.7572 0.92285,1.964 0.92285,7.3354v5.04012h-1.41976h-1.41976v-5.1821c0,-4.44857 -0.04733,-5.20577 -0.3786,-5.48972c-0.30761,-0.26029 -0.52058,-0.23663 -1.23046,0.14198l-0.87551,0.47325l-0.07099,5.04013l-0.04733,5.01646h-1.30144h-1.30144v-5.20576c0,-4.94548 -0.02366,-5.20577 -0.47325,-5.44239c-0.35494,-0.1893 -0.68622,-0.16564 -1.30144,0.14198l-0.82819,0.3786v5.06379v5.06379h-1.30144h-1.30144v-6.38889v-6.38889h1.18313c1.11214,0 1.18313,0.04732 1.18313,0.59156c0,0.73354 0.07098,0.73354 1.01749,0.02366c0.42593,-0.30761 0.97017,-0.61523 1.23046,-0.68622c1.11214,-0.26029 2.05864,0.02366 2.69754,0.82819z"/><path d="M325.51241,176.37892l0.42593,0.49692l0.87551,-0.66255c1.13581,-0.87552 2.95782,-0.97017 3.71502,-0.1893c0.7572,0.7572 0.92285,1.964 0.92285,7.3354v5.04012h-1.41976h-1.41975v-5.1821c0,-4.44857 -0.04733,-5.20577 -0.3786,-5.48972c-0.30762,-0.26029 -0.52058,-0.23663 -1.23046,0.14198l-0.87551,0.47325l-0.07099,5.04013l-0.04733,5.01646h-1.30144h-1.30144v-5.20576c0,-4.94548 -0.02366,-5.20577 -0.47325,-5.44239c-0.35494,-0.1893 -0.68621,-0.16564 -1.30144,0.14198l-0.82819,0.3786v5.06379v5.06379h-1.30144h-1.30144v-6.38889v-6.38889h1.18312c1.11214,0 1.18313,0.04732 1.18313,0.59156c0,0.73354 0.07099,0.73354 1.01749,0.02366c0.42593,-0.30761 0.97017,-0.61523 1.23046,-0.68622c1.11214,-0.26029 2.05864,0.02366 2.69753,0.82819z"/><path d="M199.88782,175.62172h1.30144h1.30145l0.04733,5.3714l0.07099,5.39507l0.66255,0.07099c0.3786,0.04733 0.92284,-0.09465 1.25412,-0.30761l0.5679,-0.35494v-5.08745v-5.08745h1.30145h1.30144v6.38889v6.38889h-1.18313c-1.01749,0 -1.18313,-0.07098 -1.18313,-0.47325c0,-0.61523 -0.07099,-0.59156 -1.1358,0.11831c-0.59157,0.40226 -1.18313,0.59157 -1.86934,0.59157c-2.34259,0 -2.43725,-0.26029 -2.43725,-7.3354z"/><path d="M219.52776,175.62172h1.30144h1.30145v4.9928c0,2.98148 0.09465,5.15844 0.23663,5.44239c0.30761,0.54424 1.23046,0.59157 2.01132,0.07099l0.59156,-0.3786v-5.06378v-5.06379h1.30145h1.30144v6.38889v6.38889h-1.30144c-1.15947,0 -1.30145,-0.04732 -1.30145,-0.47325c0,-0.47325 -0.02366,-0.47325 -1.01749,0.11831c-1.08848,0.63889 -2.4609,0.78087 -3.28909,0.33128c-0.97017,-0.52058 -1.13581,-1.51441 -1.13581,-7.31173z"/><path d="M303.88482,175.66904l1.18313,0.07099l0.07099,6.31791l0.04733,6.34157h-1.41975h-1.41976v-6.22325c0,-3.43107 0.07099,-6.3179 0.16564,-6.41255c0.09465,-0.09465 0.70988,-0.14198 1.37243,-0.09465z"/><path d="M307.55252,175.62172h1.30145h1.30144v4.9928c0,2.98148 0.09465,5.15844 0.23663,5.44239c0.30762,0.54424 1.23046,0.59157 2.01132,0.07099l0.59156,-0.3786v-5.06378v-5.06379h1.30144h1.30144v6.38889v6.38889h-1.30144c-1.15946,0 -1.30144,-0.04732 -1.30144,-0.47325c0,-0.47325 -0.02367,-0.47325 -1.0175,0.11831c-1.08848,0.63889 -2.4609,0.78087 -3.28909,0.33128c-0.97016,-0.52058 -1.13581,-1.51441 -1.13581,-7.31173z"/></g></g></g></g></svg>