<svg version="1.1" xmlns="http://www.w3.org/2000/svg" xmlns:xlink="http://www.w3.org/1999/xlink" width="97.53473" height="20" viewBox="0,0,97.53473,20"><g transform="translate(-191.23263,-170)"><g data-paper-data="{&quot;isPaintingLayer&quot;:true}" fill-rule="nonzero" stroke="none" stroke-width="1" stroke-linecap="butt" stroke-linejoin="miter" stroke-miterlimit="10" stroke-dasharray="" stroke-dashoffset="0" style="mix-blend-mode: normal"><g><g><path d="M219.80273,180c0,0 0,4.6496 -0.5974,6.8768c-0.3292,1.23 -1.2959,2.1966 -2.5259,2.5258c-2.2271,0.5974 -11.1618,0.5974 -11.1618,0.5974c0,0 -8.93458,0 -11.16177,-0.5974c-1.23,-0.3292 -2.19661,-1.2958 -2.52587,-2.5258c-0.59736,-2.2272 -0.59736,-6.8768 -0.59736,-6.8768c0,0 0,-4.64958 0.59736,-6.87676c0.32925,-1.23001 1.29587,-2.19662 2.52587,-2.52588c2.22719,-0.59736 11.16177,-0.59736 11.16177,-0.59736c0,0 8.9347,0 11.1618,0.59736c1.23,0.32925 2.1967,1.29587 2.5259,2.52588c0.595,2.22718 0.5974,6.87676 0.5974,6.87676z" fill="#ff0000"/><path d="M202.65793,175.71533l7.4224,4.28507l-7.4224,4.285z" fill="#ffffff"/></g><g fill="#fff"><path d="M231.59965,171.27789c1.89046,0.75618 2.72227,2.31898 2.69706,5.11686c-0.0252,3.40284 -1.46196,4.91521 -4.96562,5.16727l-1.89047,0.15123v3.6045v3.62969h-1.6384h-1.6384v-8.8978c0,-4.91521 0.07562,-8.99862 0.20165,-9.09944c0.27727,-0.30248 6.35197,0 7.23419,0.32768zM228.14639,173.31959h-0.70578v2.92392v2.92393l1.41155,-0.10083c1.76443,-0.15123 2.16774,-0.55454 2.31898,-2.31898c0.15123,-1.91568 -0.25206,-2.84831 -1.43675,-3.17598c-0.50413,-0.12603 -1.2099,-0.25206 -1.588,-0.25206z"/><path d="M237.24584,170.79897h1.51238l1.05866,3.40284c0.57975,1.89046 1.13428,3.32723 1.2351,3.2264c0.07562,-0.12603 0.35288,-0.83181 0.55453,-1.588c0.22685,-0.75618 0.65537,-2.21814 0.95784,-3.22639l0.55453,-1.81485h1.48717c1.03345,0 1.48716,0.10083 1.48716,0.32768c0,0.17645 -0.78139,2.52063 -1.76443,5.21769l-1.76443,4.91521v3.83134v3.85656h-1.6384h-1.6384v-3.85656v-3.88175l-1.76443,-4.91521c-0.95783,-2.72228 -1.76444,-5.06646 -1.76444,-5.21769c0,-0.17645 0.55454,-0.27727 1.48717,-0.27727z"/><path d="M246.84941,170.79897h4.53713h4.53712v1.38635v1.36113l-1.43675,0.07562l-1.46197,0.07561l-0.07561,7.61229l-0.05042,7.63748h-1.51237h-1.51238v-7.6879v-7.6879h-1.51238h-1.51238v-1.38634z"/><path d="M269.03089,170.79897h1.38635h1.38634v2.77268c0,1.51238 0.05042,2.77268 0.12604,2.77268c0.07562,0 0.50412,-0.25206 0.90742,-0.57974c1.00825,-0.73098 2.72228,-0.75619 3.50367,-0.05042c1.08387,0.95783 1.26031,1.86526 1.26031,6.35197c0,2.31898 -0.12604,4.66315 -0.25207,5.16727c-0.3781,1.31073 -1.28551,1.96608 -2.79789,1.96608c-1.00825,0 -1.38635,-0.12603 -2.11733,-0.78139l-0.88221,-0.7814v0.65537c0,0.63015 -0.07561,0.65536 -1.26031,0.65536h-1.26032v-9.07424zM272.50935,177.75589l-0.70578,0.3781v4.13382c0,3.90696 0.0252,4.15903 0.50413,4.41109c0.8318,0.45371 1.84006,0.20165 2.19295,-0.50413c0.20165,-0.4033 0.32768,-1.76443 0.32768,-3.83134c0,-3.10036 -0.22685,-4.41109 -0.8318,-4.78919c-0.4285,-0.27727 -0.70578,-0.22685 -1.48717,0.20165z"/><path d="M285.79303,175.3613c2.11733,0.57975 2.89871,1.94088 2.89871,5.14207v2.14253h-2.89871h-2.89872v1.58799c0,1.84005 0.45371,2.69706 1.43675,2.69706c0.95783,0 1.588,-0.68056 1.588,-1.68881v-0.8318h1.41155h1.43675l-0.12604,1.2351c-0.22685,2.31898 -1.71402,3.55407 -4.28505,3.55407c-1.84005,0 -2.97433,-0.60494 -3.65491,-2.01649c-0.52933,-1.00825 -0.57975,-1.46197 -0.57975,-4.96563c0,-5.01604 0.3781,-5.94867 2.69707,-6.78047c1.1847,-0.4033 1.68881,-0.4285 2.97433,-0.07561zM282.89431,179.4195v0.95783h1.51238h1.51238v-1.00824c0,-0.68057 -0.17645,-1.1847 -0.50413,-1.51238c-1.08387,-1.08387 -2.52063,-0.20165 -2.52063,1.56278z"/><path d="M257.68809,175.33609h1.38634h1.38635v5.31851c0,3.17598 0.10083,5.49496 0.25206,5.79744c0.32768,0.57975 1.31073,0.63015 2.14253,0.07561l0.63015,-0.4033v-5.39413v-5.39414h1.38635h1.38634v6.80569v6.80568h-1.38634c-1.2351,0 -1.38635,-0.05042 -1.38635,-0.50413c0,-0.50413 -0.0252,-0.50413 -1.08386,0.12603c-1.15948,0.68057 -2.62144,0.83181 -3.50366,0.35289c-1.03345,-0.55453 -1.2099,-1.6132 -1.2099,-7.78872z"/></g></g></g></g></svg>